<?xml version="1.0" encoding="utf-8"?>
<!-- Generator: Adobe Illustrator 19.2.1, SVG Export Plug-In . SVG Version: 6.00 Build 0)  -->
<svg version="1.1" id="Layer_1" xmlns="http://www.w3.org/2000/svg" xmlns:xlink="http://www.w3.org/1999/xlink" x="0px" y="0px"
	 viewBox="0 0 764.5 658.8" style="enable-background:new 0 0 764.5 658.8;" xml:space="preserve">
<style type="text/css">
	.st0{fill:#010101;}
	.st1{fill:none;stroke:#010101;stroke-width:7;stroke-miterlimit:10;}
	.st2{fill:none;}
	.st3{font-family:'AzoSans-Regular';}
	.st4{font-size:88px;}
</style>
<path class="st0" d="M625.3,144.9c-37.6-43.9-89.9-53.6-145-62.2L324.1,58.6l-0.6,70.7v355l189.1-29.6c9.2-1.4,18-2.8,26.9-4.7
	c14-2.7,45.9-10.6,75.6-38.4c36.8-34.6,56.2-93.4,56.2-146.2C671.4,219.6,654.7,179,625.3,144.9z M561.5,400.9
	c-14.6,6.2-32.4,8.9-48.4,10.8l-76,9.1l-0.7,0l-52,6.2V116.7l55.4,6.6l0.4,0l52.1,6.2c9,1.1,17.5,2.6,25.8,4.1
	c13.6,2.1,51.3,7.5,80.7,41.3c30.9,36,32.8,75.7,32.8,91.5C631.3,320.7,609.2,380.6,561.5,400.9z"/>
<path class="st0" d="M325.1,483.1l0.4-43.3l-1.2-24.3L147,239.7l30.3-49.7c4.3-6.6,9-12.7,13.7-18.8c7.7-10.9,30.5-45.4,80.2-49
	c18.9-1.2,35.5,2.7,52.4,8.3h0.1l2-71.6c-21.7-5-43.6-4.6-64-1.3c-66.1,10.4-97.5,63.4-122.7,108.3l-48.1,86.1l232.6,232.3
	L325.1,483.1z"/>
<path class="st0" d="M454.6,132.9c-2.7-2.7-6.2-5.3-8.9-7.9c-0.1-0.1-0.2-0.2-0.3-0.3c-33.8-31.3-77.5-54.3-117.9-63.9
	c-0.2,0-3.8-0.1-3.8-0.1v423.6l3.8-1.3l111.5-60.3l1.7-0.2c0.2-0.1,0.8-0.2,0.9-0.3c7.6-4.3,15.4-8.5,23-13.3
	c13.1-8,44.9-30,59.3-74.1C545.1,268.8,515.4,193.8,454.6,132.9z M389.9,400.2l-0.9,0.3c0,0-0.6-235.2,1.1-233.9
	c0.3,0.2,0.6,0.5,0.9,0.7c35.8,21.4,87.4,57.4,87.4,129.3C478.4,367.2,389.9,400.2,389.9,400.2z"/>
<rect x="23.8" y="21" class="st1" width="716.9" height="616.8"/>
<rect x="43.3" y="524.7" class="st2" width="678" height="81.4"/>
<text transform="matrix(1 0 0 1 51.7924 591.9587)" class="st0 st3 st4">Desiree Designs</text>
</svg>
